<svg width="64" height="64" viewBox="0 0 64 64" fill="none" xmlns="http://www.w3.org/2000/svg">
  <rect width="64" height="64" rx="14" fill="#0A192F"/>
  <path d="M8 15V49H24V43H14V15H8Z" fill="#F59E0B"/>
  <path d="M26 15H56V21H32V26H47V32H32V43H56V49H26V15Z" fill="white"/>
  <path d="M53 18C50 16 47 15 43 15C37 15 32 18 29 23C26 28 26 36 29 41C32 46 37 49 43 49C47 49 50 48 53 45L48 40C47 42 45 43 43 43C39 43 36 39 36 32C36 25 39 21 43 21C45 21 47 22 48 24L53 18Z" fill="#F59E0B"/>
  <path d="M43 55L46 48H50L53 55H50.5L49.8 53H46.2L45.5 55H43ZM46.9 51.2H49.1L48 48.8L46.9 51.2Z" fill="#F59E0B"/>
</svg>
