<svg width="64" height="64" viewBox="0 0 64 64" fill="none" xmlns="http://www.w3.org/2000/svg">
  <rect width="64" height="64" rx="14" fill="#0A192F"/>
  <rect x="7" y="12" width="14" height="40" rx="5" fill="#F59E0B"/>
  <path d="M10 16V48H18V44H14V16H10Z" fill="#0A192F"/>
  <path d="M24 18C27 14 31 12 36 12C43 12 49 17 51 23L45 26C44 22 40 20 36 20C31 20 27 24 27 32C27 40 31 44 36 44C40 44 44 42 45 38L51 41C49 47 43 52 36 52C31 52 27 50 24 46C21 42 20 37 20 32C20 27 21 22 24 18Z" fill="white"/>
  <path d="M48 53L52 42H56L60 53H56.5L56 51H52L51.5 53H48ZM52.8 48H55.2L54 45.4L52.8 48Z" fill="#F59E0B"/>
</svg>
