<svg width="256" height="256" viewBox="0 0 256 256" fill="none" xmlns="http://www.w3.org/2000/svg">
  <rect width="256" height="256" rx="56" fill="#0A192F"/>
  <rect x="20" y="20" width="216" height="216" rx="44" stroke="#F59E0B" stroke-width="8"/>
  <path d="M60 76V178H126V154H90V76H60Z" fill="#F59E0B"/>
  <path d="M130 76H203V98H152V116H192V136H152V156H203V178H130V76Z" fill="white"/>
  <path d="M208 86C203 81 194 78 184 78C167 78 154 86 147 100C140 114 140 140 147 154C154 168 167 176 184 176C194 176 203 173 208 168L196 152C193 155 189 156 185 156C172 156 164 145 164 127C164 109 172 98 185 98C189 98 193 99 196 102L208 86Z" fill="#F59E0B"/>
</svg>
