<svg width="256" height="256" viewBox="0 0 256 256" fill="none" xmlns="http://www.w3.org/2000/svg">
  <rect width="256" height="256" rx="56" fill="#0A192F"/>
  <rect x="20" y="20" width="216" height="216" rx="44" stroke="#F59E0B" stroke-width="8"/>
  <rect x="44" y="66" width="54" height="124" rx="18" fill="#F59E0B"/>
  <path d="M57 80V176H90V158H74V80H57Z" fill="#0A192F"/>
  <path d="M108 84C116 74 128 68 142 68C162 68 178 80 184 98L166 107C163 95 154 88 142 88C128 88 118 100 118 128C118 156 128 168 142 168C154 168 163 161 166 149L184 158C178 176 162 188 142 188C128 188 116 182 108 172C100 162 96 147 96 128C96 109 100 94 108 84Z" fill="white"/>
  <path d="M188 188L204 140H220L236 188H220L218 179H206L204 188H188ZM210 165H214L212 158L210 165Z" fill="#F59E0B"/>
</svg>
