<svg width="256" height="256" viewBox="0 0 256 256" fill="none" xmlns="http://www.w3.org/2000/svg">
  <rect width="256" height="256" rx="56" fill="#0A192F"/>
  <rect x="20" y="20" width="216" height="216" rx="44" stroke="#F59E0B" stroke-width="8"/>
  <path d="M50 76V180H122V156H80V76H50Z" fill="#F59E0B"/>
  <path d="M136 76H222V100H166V116H208V138H166V156H222V180H136V76Z" fill="white"/>
  <path d="M212 86C206 80 196 76 184 76C164 76 150 86 142 102C134 118 134 138 142 154C150 170 164 180 184 180C196 180 206 176 212 170L198 152C194 156 190 158 184 158C170 158 162 146 162 128C162 110 170 98 184 98C190 98 194 100 198 104L212 86Z" fill="#F59E0B"/>
  <path d="M184 192L196 168H208L220 192H210L207 184H197L194 192H184ZM199 176H205L202 168L199 176Z" fill="#F59E0B"/>
</svg>
